<?xml version="1.0" encoding="UTF-8"?> <svg xmlns="http://www.w3.org/2000/svg" xmlns:xlink="http://www.w3.org/1999/xlink" id="Layer_1" data-name="Layer 1" viewBox="0 0 1050 470"><defs><style>.cls-1{fill:none;}.cls-2{clip-path:url(#clip-path);}.cls-3{fill:#002f6c;}</style><clipPath id="clip-path"><rect class="cls-1" x="86.03314" y="85.38751" width="877.93371" height="299.22498"></rect></clipPath></defs><g id="FullLogo_Blue"><g class="cls-2"><path class="cls-3" d="M302.43239,343.5552a43.5527,43.5527,0,0,1-19.87571,4.535c-35.77663,0-45.96354-20.6531-45.96354-46.34448V251.87461c11.92611,12.09158,29.81442,28.71472,38.26043,37.5296,7.20669,7.80825,17.3919,14.60987,30.06436,15.86644,21.86309,2.27007,40.99246-10.57648,42.73336-28.208a32.81007,32.81007,0,0,0-.74635-9.82322c-1.491-7.80653-9.69049-18.38646-9.44055-20.65309.2482-3.0216,6.95675-8.0599,11.92439-16.37147a5.52966,5.52966,0,0,1,.74635-1.26c.2482-.25166.2482-.50331.49814-.755a25.18641,25.18641,0,0,0,2.732-9.31991c1.7392-17.88314-14.65814-34.00295-36.523-36.26959-11.17976-1.00662-25.8379,4.03-32.29824,7.80825a114.9836,114.9836,0,0,0-11.92611,7.80825c3.97479-4.535,7.45317-8.56321,9.93871-11.33488,6.95849-8.0599,12.67074-18.88977,12.67074-31.7346,0-22.16473-14.40821-40.04787-32.05-40.04787a29.84735,29.84735,0,0,0-9.44057,1.76331c-7.45317,2.26664-17.14368,11.33316-19.37929,11.33316-3.23017,0-8.446-6.29659-17.142-10.32654q-.74722-.37748-1.49272-.755c-.2482,0-.49642-.25165-.74462-.5033a24.18207,24.18207,0,0,0-9.44057-1.76334c-17.6401,0-32.05,17.88143-32.05,40.0479,0,11.33316,6.70854,25.438,10.93155,31.7346,1.491,2.015,3.23017,4.535,5.46577,7.30493-2.2356-1.51166-3.97479-2.51829-5.714-3.52665-6.46033-3.77828-21.11848-9.06825-32.29824-7.80825-21.86483,2.26664-38.26216,18.38645-36.523,36.26959a23.83626,23.83626,0,0,0,2.73375,9.31991c.2482.25167.2482.50332.49642.755a5.50605,5.50605,0,0,0,.74635,1.26c4.96764,8.31157,11.67618,13.09649,11.92439,16.37147.24821,2.26663-7.70139,12.84656-9.44057,20.65309a25.5453,25.5453,0,0,0-.74635,9.82322c1.73918,17.88142,20.87027,30.478,42.73337,28.208,12.67247-1.25657,22.85767-8.05819,30.06263-15.86644,7.95132-8.31157,25.59142-24.93471,37.51753-37.5296v51.63616c-.49814,24.68132-10.93328,44.57944-45.96526,44.57944a48.031,48.031,0,0,1-15.89919-2.77c-34.78378-9.82321-70.8086-54.4061-70.8086-110.32043,0-77.57575,58.88248-140.54508,135.65329-140.54508,77.02074,0,135.65329,62.96933,135.65329,140.54508,0,55.411-35.032,97.22222-67.57843,108.55538m-68.07486-258.167c-81.98837,0-148.324,66.99757-148.324,149.61163,0,82.61579,65.83926,149.61336,147.57941,149.61336,81.98664,0,148.82046-66.99757,148.82046-149.61336.24823-82.61406-66.33567-149.61163-148.07582-149.61163"></path><path class="cls-3" d="M521.94049,154.65153c11.71066-4.9728,16.52315-13.7963,16.52315-23.41957,0-19.41032-17.96588-29.99713-44.43289-29.99713-13.15339,0-23.26105,1.12211-33.04463,1.12211-8.82348,0-13.63428-.48092-17.16433-.48092-4.3316,0-5.93634,2.08566-5.93634,4.65221,0,6.73611,9.787,3.36806,9.787,14.5961v76.676c0,11.228-9.787,7.86-9.787,14.59782,0,2.56655,1.60474,4.65219,5.93634,4.65219,3.53,0,8.34085-.48262,17.16433-.48262,8.49945,0,24.38143.64293,38.17773.64293,32.40162,0,47.95952-12.67248,47.95952-33.2049,0-14.91842-10.10419-25.02432-25.18288-29.35421m-47.64238-32.88427c0-6.09665,3.69037-7.69968,11.55033-7.69968h2.24765c13.79462,0,21.81314,7.05675,21.81314,18.76739s-7.86,17.00407-19.89121,17.00407H479.59323c-4.3316,0-5.29512-1.12385-5.29512-4.011Zm18.44677,82.93121h-4.49019c-10.90917,0-13.95658-1.44444-13.95658-10.26622V166.68107c0-3.52836,1.28413-4.97279,4.9745-4.97279h10.58682c18.28647,0,28.07178,8.50115,28.07178,22.61806,0,12.67246-9.94559,20.37213-25.18633,20.37213m67.56118,12.35186c3.84723,0,7.85822-.48262,15.88025-.48262,8.18052,0,12.51043.48262,16.19907.48262,3.85071,0,5.45371-2.40626,5.45371-4.4919,0-6.41552-9.62329-2.88715-9.62329-14.75811V101.876c0-4.65221-1.12212-7.69965-4.97277-7.69965-1.60306,0-3.68869.48089-14.27725,5.1331-11.228,5.13311-15.39756,7.21876-15.39756,10.74712,0,7.21877,10.58507,2.72857,10.58507,12.83279v74.91094c0,11.871-9.30094,8.34259-9.30094,14.75811,0,2.246,1.60127,4.4919,5.45371,4.4919M694.79587,191.7054V142.94089c0-3.52836-.47916-7.86-4.97282-7.86-1.44441,0-4.49015.6412-14.59607,4.011-13.95489,4.49017-17.96588,6.25522-17.96588,10.1059,0,6.89644,13.47227,3.52838,13.47227,13.63428v15.88024c0,15.88022-8.82006,21.65625-17.00063,21.65625-9.94733,0-14.43752-6.41724-14.43752-19.41031V142.94089c0-3.849-.80324-7.86-5.13484-7.86-1.44268,0-3.84724.48089-14.43579,4.1713-12.51043,4.16955-16.36282,5.9346-16.36282,9.94559,0,6.57582,11.87268,3.52838,11.87268,13.63428v24.86231c0,19.89122,10.90569,30.79864,27.75119,30.79864,13.474,0,22.61636-7.37906,27.74773-15.88023v8.6632c0,3.52836,1.44441,6.57582,5.13483,6.57582,1.76329,0,4.97109-.48091,14.11518-2.56656,13.47569-2.88714,17.32639-4.32987,17.32639-8.82176,0-5.93634-12.5139-4.49191-12.5139-14.75812m99.27512,1.44445c-1.60648,0-2.89061.8015-5.45545,2.72685-5.93634,4.97108-12.51043,8.01853-20.5324,8.01853-11.70893,0-20.85476-7.37733-25.82758-17.48324l48.12332-14.75812c2.88714-.96181,4.33333-1.765,4.33333-6.41552,0-15.71992-13.79629-32.08277-36.735-32.08277-23.57987,0-44.27261,17.32466-44.27261,43.952,0,25.98614,18.44851,42.6696,43.14876,42.6696,19.57236,0,34.327-9.94562,39.62046-18.28648a8.1124,8.1124,0,0,0,1.44441-4.17129c0-1.76333-1.44441-4.16957-3.84724-4.16957m-39.46354-47.80271c9.14582,0,15.56132,8.9838,15.56132,16.36114,0,2.88887-1.2824,4.17128-3.85071,4.97279l-27.59086,8.9838a38.81779,38.81779,0,0,1-.64122-7.53936c0-14.11518,6.89817-22.77837,16.52147-22.77837M492.42427,371.621c25.82584,0,42.18866-14.59782,47.80271-25.18463,1.60474-2.88716,2.40793-5.29341,2.40793-7.37906a5.01384,5.01384,0,0,0-5.13479-5.29341c-2.88719,0-4.65221,1.92535-6.257,4.1713-6.57583,8.98207-16.68,15.71992-29.35246,15.71992-20.53246,0-36.25412-16.84376-36.25412-45.555,0-25.82756,13.636-44.27434,31.76219-44.27434,11.39005,0,21.01335,8.66147,33.04457,24.864,2.08569,2.72685,3.687,4.16957,6.25353,4.16957a5.05139,5.05139,0,0,0,5.13484-5.45371c0-2.72686-1.44446-5.93462-4.16958-13.15337l-5.7778-15.39933c-2.40277-6.25522-4.32813-8.66147-7.53761-8.66147-3.69037,0-4.65047,4.4919-8.34085,4.4919-4.16958,0-13.31541-3.85069-24.38143-3.85069-28.07349,0-54.54055,24.864-54.54055,63.04,0,36.09378,26.14645,57.74832,55.34037,57.74832m63.02275-2.88717c3.85239,0,7.86169-.48262,15.88193-.48262,8.18057,0,12.51043.48262,16.20259.48262,3.84724,0,5.45367-2.40625,5.45367-4.49189,0-6.41725-9.625-2.88716-9.625-14.75812V253.55951c0-4.65219-1.12386-7.69965-4.97283-7.69965-1.60474,0-3.69037.48091-14.27545,5.1331-11.23151,5.1331-15.401,7.21875-15.401,10.74712,0,7.21875,10.5885,2.72686,10.5885,12.83276v74.911c0,11.871-9.30611,8.34087-9.30611,14.75812,0,2.24767,1.60648,4.49189,5.45372,4.49189m91.50306,2.72686c27.91321,0,48.92482-18.28647,48.92482-44.27261,0-24.06252-17.32466-42.349-45.87562-42.349-28.55443,0-48.92656,18.92769-48.92656,44.43292,0,23.90222,17.3264,42.18869,45.87736,42.18869m4.49361-12.19156c-15.239,0-24.38485-20.53243-24.38485-36.57295,0-16.20083,6.73785-25.66554,18.44678-25.66554,15.07874,0,24.38485,20.53243,24.38485,36.73326,0,16.04053-6.57752,25.50523-18.44678,25.50523m137.94579-71.70319c-3.36808,0-8.01855.4809-12.18982.4809s-8.3409-.4809-11.54865-.4809c-4.01272,0-6.09836,1.60474-6.09836,4.3316,0,5.93461,8.34085,4.9728,8.34085,11.228,0,2.72686-.96,5.61574-2.8854,10.26621l-13.47568,34.96994-13.47227-34.96994c-1.76676-4.32987-2.72686-7.37733-2.72686-9.7853,0-7.37733,8.01856-5.77432,8.01856-11.70893,0-2.72686-2.08569-4.3316-6.25522-4.3316-4.17132,0-8.98381.4809-17.16438.4809-8.65978,0-13.79456-.4809-17.96588-.4809-2.88714,0-5.13137,1.60474-5.13137,4.17129,0,6.09492,7.53935,3.68867,12.19156,14.59609L732.765,362.31657c2.08563,4.81423,3.85066,7.21875,12.99474,7.21875,9.46476,0,11.066-2.88715,12.83278-7.21875L782.17243,306.173c4.32991-10.42652,12.35189-8.34087,12.35189-14.43579,0-2.56655-2.246-4.17129-5.13484-4.17129m85.82358,57.26569c-1.60474,0-2.88719.80323-5.452,2.72685-5.93634,4.9728-12.51385,8.022-20.53241,8.022-11.71066,0-20.85475-7.37906-25.82757-17.485l48.12158-14.75812c2.88887-.96181,4.3316-1.765,4.3316-6.41552,0-15.71992-13.79456-32.08278-36.73153-32.08278-23.57988,0-44.27261,17.32467-44.27261,43.952,0,25.98786,18.445,42.66959,43.14708,42.66959,19.5723,0,34.3287-9.94561,39.62382-18.28647a8.15692,8.15692,0,0,0,1.441-4.1713c0-1.76332-1.441-4.17129-3.84892-4.17129m-39.46012-47.801c9.14235,0,15.56132,8.9838,15.56132,16.36113,0,2.88716-1.28413,4.1713-3.85239,4.97453l-27.58918,8.98208a38.68234,38.68234,0,0,1-.64123-7.53936c0-14.11691,6.89644-22.77838,16.52148-22.77838m113.2955-10.90742c-11.54865,0-22.94044,9.30268-27.75119,21.49424V294.46407c0-4.4919-1.12385-7.69966-4.97109-7.69966-1.76675,0-3.69037.4809-14.27892,5.29341-11.38664,4.9728-15.39762,7.21875-15.39762,10.74712,0,7.05845,10.58507,2.56655,10.58507,12.83449V349.4838c0,11.871-9.463,8.34087-9.463,14.75812,0,2.24767,1.60474,4.49189,5.45371,4.49189,3.85071,0,8.022-.48262,16.04227-.48262,8.98207,0,13.95489.48262,18.12616.48262,3.849,0,5.45371-2.40625,5.45371-4.49189,0-7.05845-11.55033-2.88716-11.55033-14.75812V334.72569c0-19.40859,9.78358-27.90976,16.04221-27.90976,4.32992,0,7.05846,3.36806,9.94565,9.14238,1.28239,2.56655,2.8854,4.6522,5.45371,4.6522,2.72686,0,4.48846-1.92534,5.77259-5.13311,3.368-8.02026,5.45371-13.95488,5.45371-18.44678,0-5.77431-5.93292-10.90742-14.91668-10.90742"></path><rect class="cls-1" x="86.03314" y="85.38751" width="877.93371" height="299.22498"></rect></g></g></svg> 