<?xml version="1.0" encoding="UTF-8" standalone="no"?> <svg xmlns:dc="http://purl.org/dc/elements/1.1/" xmlns:cc="http://creativecommons.org/ns#" xmlns:rdf="http://www.w3.org/1999/02/22-rdf-syntax-ns#" xmlns:svg="http://www.w3.org/2000/svg" xmlns="http://www.w3.org/2000/svg" xmlns:sodipodi="http://sodipodi.sourceforge.net/DTD/sodipodi-0.dtd" xmlns:inkscape="http://www.inkscape.org/namespaces/inkscape" version="1.2" width="990" height="765" id="svg2989" sodipodi:docname="gsg-logo-grcon.svg" inkscape:version="0.92.1 r15371"><defs id="defs3"></defs><metadata id="metadata2993"></metadata><g transform="translate(0,587.83464)" id="layer1" inkscape:export-xdpi="74.669998" inkscape:export-ydpi="74.669998"><path d="m -71.208267,-660.93536 1142.551667,0 0,877.13055 -1142.551667,0 z" id="rect3766" style="fill:#000000;fill-opacity:1;stroke:#000000;stroke-width:0.99921262;stroke-linecap:round;stroke-linejoin:round;stroke-miterlimit:4;stroke-opacity:1"></path><g transform="matrix(0.97287388,0,0,0.97287388,66.577318,-863.22051)" id="g2437" style="fill:#33ff00;fill-opacity:1"><g transform="translate(561.42857,498.07649)" id="g2389" style="fill:#33ff00;fill-opacity:1"><path d="m 139.604,-11.242 3.507,-0.282 9.351,1.531 12.996,5.438 0,9.11 -12.996,5.438 -9.351,1.531 -3.507,-0.282 -1.847,14.031 3.461,0.635 8.635,3.9 11.146,8.616 -2.357,8.799 -13.962,1.889 -9.428,-0.94 -3.314,-1.181 -5.416,13.075 3.178,1.509 7.332,6.002 8.537,11.208 -4.555,7.889 -13.975,-1.789 -8.863,-3.349 -2.896,-1.998 -8.615,11.228 2.679,2.28 5.529,7.695 5.345,13.035 -6.442,6.442 -13.035,-5.345 -7.695,-5.529 -2.28,-2.679 -11.228,8.615 1.998,2.896 3.349,8.863 1.789,13.975 -7.889,4.555 -11.208,-8.537 -6.002,-7.332 -1.509,-3.178 -13.075,5.416 1.181,3.314 0.94,9.428 -1.889,13.962 -8.799,2.357 -8.616,-11.146 -3.9,-8.635 -0.635,-3.461 -14.031,1.847 0.282,3.507 -1.531,9.351 -5.438,12.996 -9.11,0 -5.438,-12.996 -1.531,-9.351 0.282,-3.507 -14.031,-1.847 -0.635,3.461 -3.9,8.635 -8.616,11.146 -8.799,-2.357 -1.889,-13.962 0.94,-9.428 1.181,-3.314 -13.075,-5.416 -1.509,3.178 -6.002,7.332 -11.208,8.537 -7.889,-4.555 1.789,-13.975 3.349,-8.863 1.998,-2.896 -11.228,-8.615 -2.28,2.679 -7.695,5.529 -13.035,5.345 -6.442,-6.442 5.345,-13.035 5.529,-7.695 2.679,-2.28 -8.615,-11.228 -2.896,1.998 -8.863,3.349 -13.975,1.789 -4.555,-7.889 8.537,-11.208 7.332,-6.002 3.178,-1.509 -5.416,-13.075 -3.314,1.181 -9.428,0.94 -13.962,-1.889 -2.357,-8.799 11.146,-8.616 8.635,-3.9 3.461,-0.635 -1.847,-14.031 -3.507,0.282 -9.351,-1.531 -12.996,-5.438 0,-9.11 12.996,-5.438 9.351,-1.531 3.507,0.282 1.847,-14.031 -3.461,-0.635 -8.635,-3.9 -11.146,-8.616 2.357,-8.799 13.962,-1.889 9.428,0.94 3.314,1.181 5.416,-13.075 -3.178,-1.509 -7.332,-6.002 -8.537,-11.208 4.555,-7.889 13.975,1.789 8.863,3.349 2.896,1.998 8.615,-11.228 -2.679,-2.28 -5.529,-7.695 -5.345,-13.035 6.442,-6.442 13.035,5.345 7.695,5.529 2.28,2.679 11.228,-8.615 -1.998,-2.896 -3.349,-8.863 -1.789,-13.975 7.889,-4.555 11.208,8.537 6.002,7.332 1.509,3.178 13.075,-5.416 -1.181,-3.314 -0.94,-9.428 1.889,-13.962 8.799,-2.357 8.616,11.146 3.9,8.635 0.635,3.461 14.031,-1.847 -0.282,-3.507 1.531,-9.351 5.438,-12.996 9.11,0 5.438,12.996 1.531,9.351 -0.282,3.507 14.031,1.847 0.635,-3.461 3.9,-8.635 8.616,-11.146 8.799,2.357 1.889,13.962 -0.94,9.428 -1.181,3.314 13.075,5.416 1.509,-3.178 6.002,-7.332 11.208,-8.537 7.889,4.555 -1.789,13.975 -3.349,8.863 -1.998,2.896 11.228,8.615 2.28,-2.679 7.695,-5.529 13.035,-5.345 6.442,6.442 -5.345,13.035 -5.529,7.695 L 78.093571,-61.480285 -9.0057144,-85.252286 -78.966857,-6.5359999 -0.10385729,85.829286 53.871143,45.468857 10.569,16.215 19.185572,-10.273 139.604,-11.242 z" id="path2391" style="fill:#33ff00;fill-opacity:1;stroke:#000000;stroke-width:0.19047619"></path></g><g transform="matrix(-1,0,0,1,307.34591,667.42168)" id="g2399" style="fill:#33ff00;fill-opacity:1"><path d="m 115.36034,21.082881 3.507,-0.282 9.351,1.531 12.996,5.438 0,9.11 -12.996,5.438 -9.351,1.531 -3.507,-0.282 -1.847,14.031 3.461,0.635 8.635,3.9 11.146,8.616 -2.357,8.799 -13.962,1.889 -9.428,-0.94 -3.314,-1.181 -5.416,13.075 3.178,1.509 7.332,6.002 8.537,11.207999 -4.555,7.889 -13.975,-1.789 -8.863001,-3.349 -2.896,-1.998 -8.615,11.228 2.679,2.28 5.529,7.695 5.345,13.035 -6.442,6.442 -13.035,-5.345 -7.695,-5.529 -2.28,-2.679 -11.228,8.615 1.998,2.896 3.349,8.863 1.789,13.975 -7.889,4.555 -11.208,-8.537 -6.002,-7.332 -1.509,-3.178 -13.075,5.416 1.181,3.314 0.94,9.428 -1.889,13.962 -8.799,2.357 -8.6160001,-11.146 -3.9,-8.635 -0.635,-3.461 -14.0309999,1.847 0.282,3.507 -1.531,9.351 -5.438,12.996 -9.11,0 -5.438,-12.996 -1.531,-9.351 0.282,-3.507 -14.031,-1.847 -0.635,3.461 -3.9,8.635 -8.616,11.146 -8.799,-2.357 -1.889,-13.962 0.94,-9.428 1.181,-3.314 -13.075,-5.416 -1.509,3.178 -6.002,7.332 -11.207999,8.537 -7.889,-4.555 1.789,-13.975 3.349,-8.863 1.998,-2.896 -11.228,-8.615 -2.28,2.679 -7.695,5.529 -13.035,5.345 -6.442,-6.442 5.345,-13.035 5.529,-7.695 2.679,-2.28 -8.615,-11.228 -2.896,1.998 -8.863,3.349 -13.975,1.789 -4.555,-7.889 8.537,-11.207999 7.332,-6.002 3.178,-1.509 -5.416,-13.075 -3.314,1.181 -9.428,0.94 -13.962,-1.889 -2.357,-8.799 11.146,-8.616 8.635,-3.9 3.461,-0.635 -1.847,-14.031 -3.507,0.282 -9.351,-1.531 -12.996,-5.438 0,-9.11 12.996,-5.438 9.351,-1.531 3.507,0.282 1.847,-14.0309995 -3.461,-0.635 -8.635,-3.9 -11.146,-8.616 2.357,-8.7990005 13.962,-1.889 9.428,0.94 3.314,1.181 5.416,-13.075 -3.178,-1.509 -7.332,-6.002 -8.537,-11.208 4.555,-7.889 13.975,1.789 8.863,3.349 2.896,1.998 8.615,-11.228 -2.679,-2.28 -5.529,-7.695 -5.345,-13.035 6.442,-6.442 13.035,5.345 7.695,5.529 2.28,2.679 11.228,-8.615 -1.998,-2.896 -3.349,-8.863 -1.789,-13.975001 7.889,-4.555 11.207999,8.537 6.002,7.332001 1.509,3.178 13.075,-5.416 -1.181,-3.314001 -0.94,-9.428 1.889,-13.962 8.799,-2.357 8.616,11.146 3.9,8.635 0.635,3.461 14.031,-1.847 -0.282,-3.507 1.531,-9.351 5.438,-12.996 9.11,0 5.438,12.996 1.531,9.351 -0.282,3.507 14.0309999,1.847 0.635,-3.461 3.9,-8.635 8.6160001,-11.146 8.799,2.357 1.889,13.962 -0.94,9.428 -1.181,3.314001 13.075,5.416 1.509,-3.178 6.002,-7.332001 11.208,-8.537 7.889,4.555 -1.789,13.975001 -3.349,8.863 -1.998,2.896 11.228,8.615 2.28,-2.679 7.695,-5.529 13.035,-5.345 6.442,6.442 -5.345,13.035 -5.529,7.695 -31.250429,31.565715 -87.099285,-23.772001 -69.961145,78.716287 78.863002,92.365288 53.975,-40.360432 -43.302143,-29.253857 8.6165719,-26.488 120.4184291,-0.969 z" id="path2401" style="fill:#33ff00;fill-opacity:1;stroke:#000000;stroke-width:0.19047619"></path></g></g><g id="text3948" style="font-size:140px;font-style:normal;font-variant:normal;font-weight:normal;font-stretch:normal;text-align:start;line-height:125%;letter-spacing:0px;word-spacing:0px;writing-mode:lr-tb;text-anchor:start;fill:#cccccc;fill-opacity:1;stroke:none;font-family:League Gothic;-inkscape-font-specification:League Gothic"><path d="m 103.94179,48.116847 0,-15.82 c 0,-2.799998 -0.56,-4.760002 -1.96,-6.44 -0.7,-0.7 -1.82,-1.12 -3.080002,-1.12 -2.659997,0 -3.920001,1.960001 -4.48,3.78 -0.42,1.119998 -0.56,2.380001 -0.56,3.78 l 0,61.88 c 0,2.939997 0.700001,4.900001 2.1,6.440003 0.699999,0.7 1.680001,1.12 2.94,1.12 2.660002,0 3.920002,-1.68001 4.480002,-3.780003 0.42,-0.979999 0.56,-2.240002 0.56,-3.78 l 0,-18.62 -6.020002,0 0,-12.74 21.140002,0 0,51.240003 -8.96,0 -1.82,-4.9 c -2.8,3.49999 -6.86001,6.02 -11.760002,6.02 -4.899995,0 -8.260002,-1.26001 -10.78,-3.5 -2.519997,-2.1 -4.200001,-4.76001 -5.32,-7.56 -1.259999,-3.22 -1.82,-7.000008 -1.68,-11.200003 l 0,-60.62 c 0.14,-4.059996 0.980002,-7.840004 2.52,-11.06 1.259999,-2.799998 3.080003,-5.600002 5.88,-7.7 2.799997,-2.099998 6.720005,-3.5 11.76,-3.5 5.039992,0 8.820002,1.400002 11.620002,3.5 2.8,2.099998 4.76,4.900002 6.02,7.7 1.54,3.219996 2.38,7.000004 2.52,11.06 l 0,15.82 -15.12,0" id="path2997"></path><path d="m 157.05429,114.05685 -7.84,-43.400003 -4.06,0 0,43.400003 -15.12,0 0,-102.900003 15.12,0 c 18.05998,0 25.76,10.220019 25.76,29.68 0,10.219989 -2.66001,19.460004 -8.4,23.38 l 9.66,49.840003 -15.12,0 m -11.9,-57.400003 c 2.1,0 4.9,-0.280002 7.14,-2.24 2.24,-1.959998 4.06,-5.740008 4.06,-13.02 0,-7.279993 -1.82,-11.200002 -4.06,-13.16 -2.24,-1.959998 -5.04,-2.1 -7.14,-2.1 l 0,30.52" id="path2999"></path><path d="m 180.62023,11.156847 34.58,0 0,15.54 -19.46,0 0,27.02 14,0 0,16.52 -14,0 0,28.28 19.46,0 0,15.540003 -34.58,0 0,-102.900003" id="path3001"></path><path d="m 219.62335,114.05685 15.54,-102.900003 18.48,0 15.54,102.900003 -14.7,0 -2.8,-21.000003 -14.56,0 -2.8,21.000003 -14.7,0 m 25.62,-69.440003 -0.42,-2.66 -0.84,0 -0.42,2.66 -4.34,32.48 10.36,0 -4.34,-32.48" id="path3003"></path><path d="m 267.7221,26.696847 0,-15.54 43.68,0 0,15.54 -14.28,0 0,87.360003 -15.12,0 0,-87.360003 -14.28,0" id="path3005"></path><path d="m 364.00054,38.736847 c 0,-3.359997 -0.14,-7.140003 -1.12,-10.08 -0.98,-2.799998 -2.52,-4.76 -4.9,-4.76 -3.92,0.139999 -5.18,4.200006 -5.18,10.22 0,3.499996 1.54,7.140004 3.78,11.06 2.24,3.919996 5.18,7.980004 8.12,12.32 3.49999,5.179994 7,10.500005 9.66,15.68 2.66,5.179994 4.48,10.500005 4.48,16.1 0,6.859993 -1.12001,13.300003 -4.34,18.060003 -3.22,4.75999 -8.40001,7.84 -16.66,7.84 -9.65999,0 -15.12001,-3.64001 -18.2,-9.24 -3.08,-5.6 -3.78,-13.020011 -3.78,-20.720003 l 14.84,-1.4 c 0,4.339995 0.14,8.680003 1.26,11.9 0.98,3.359996 2.66,5.600003 5.88,5.600003 4.47999,0 6.16,-4.76001 6.16,-11.340003 0,-3.359997 -1.68,-7.280004 -3.92,-11.34 -1.26,-1.959998 -2.52,-4.060002 -3.92,-6.16 -2.94,-4.199996 -6.16001,-8.960006 -9.52,-14.14 -3.36,-5.179995 -5.88,-10.500006 -7.42,-15.96 -0.84,-2.659998 -1.26,-5.460003 -1.26,-8.26 0,-5.599995 1.26,-11.620005 4.48,-16.24 3.21999,-4.479996 8.12001,-7.700001 15.26,-7.84 9.09999,-0.1400002 14.42,3.640005 17.36,9.1 2.94,5.599994 3.78,12.460005 3.78,18.2 l -14.84,1.4" id="path3007"></path><path d="m 426.40554,78.776847 0,14.14 c -0.14,4.199995 -0.98,7.980003 -2.52,11.200003 -1.26,2.79999 -3.22,5.46 -6.02,7.56 -2.8,2.23999 -6.58001,3.5 -11.62,3.5 -5.04,0 -8.96,-1.26001 -11.76,-3.5 -2.8,-2.1 -4.62,-4.76001 -5.88,-7.56 -1.54,-3.22 -2.38,-7.000008 -2.52,-11.200003 l 0,-60.62 c 0.14,-4.059996 0.98,-7.840004 2.52,-11.06 1.26,-2.799998 3.08,-5.600002 5.88,-7.7 2.8,-2.099998 6.72,-3.5 11.76,-3.5 5.03999,0 8.82,1.400002 11.62,3.5 2.8,2.099998 4.76,4.900002 6.02,7.7 1.54,3.219996 2.38,7.000004 2.52,11.06 l 0,14.14 -14.14,0 0,-14.14 c 0,-2.799998 -0.7,-4.760002 -2.24,-6.44 -0.7,-0.7 -1.96,-1.12 -3.5,-1.12 -2.66,0 -3.92,1.960001 -4.62,3.78 -0.42,1.119998 -0.56,2.380001 -0.7,3.78 l 0,60.62 c 0.14,2.939997 0.98,4.900001 2.38,6.44 0.7,0.700003 1.68,1.120003 2.94,1.120003 3.21999,0 4.48,-1.680005 5.18,-3.780003 0.42,-0.979999 0.56,-2.240002 0.56,-3.78 l 0,-14.14 14.14,0" id="path3009"></path><path d="m 474.80398,92.916847 c -0.14,4.199995 -0.98001,7.980003 -2.52,11.200003 -1.26,2.79999 -3.22001,5.46 -6.02,7.56 -2.8,2.23999 -6.58001,3.5 -11.62,3.5 -5.04,0 -8.96001,-1.26001 -11.76,-3.5 -2.8,-2.1 -4.62001,-4.76001 -5.88,-7.56 -1.54,-3.22 -2.38,-7.000008 -2.52,-11.200003 l 0,-60.62 c 0.14,-4.059996 0.98,-7.840004 2.52,-11.06 1.25999,-2.799998 3.08,-5.600002 5.88,-7.7 2.79999,-2.099998 6.72,-3.5 11.76,-3.5 5.03999,0 8.82,1.400002 11.62,3.5 2.79999,2.099998 4.76,4.900002 6.02,7.7 1.53999,3.219996 2.38,7.000004 2.52,11.06 l 0,60.62 m -15.12,-60.62 c 0,-2.799998 -0.56001,-4.760002 -1.96,-6.44 -0.7,-0.7 -1.82001,-1.12 -3.08,-1.12 -2.66,0 -3.92001,1.960001 -4.48,3.78 -0.42,1.119998 -0.56,2.380001 -0.56,3.78 l 0,60.62 c 0,2.939997 0.7,4.900001 2.1,6.44 0.69999,0.700003 1.68,1.120003 2.94,1.120003 2.65999,0 3.92,-1.680005 4.48,-3.780003 0.42,-0.979999 0.56,-2.240002 0.56,-3.78 l 0,-60.62" id="path3011"></path><path d="m 478.26898,26.696847 0,-15.54 43.68,0 0,15.54 -14.28,0 0,87.360003 -15.12,0 0,-87.360003 -14.28,0" id="path3013"></path><path d="m 523.6596,26.696847 0,-15.54 43.68,0 0,15.54 -14.28,0 0,87.360003 -15.12,0 0,-87.360003 -14.28,0" id="path3015"></path><path d="m 619.09804,48.116847 0,-15.82 c 0,-2.799998 -0.56,-4.760002 -1.96,-6.44 -0.7,-0.7 -1.82,-1.12 -3.08,-1.12 -2.66,0 -3.92,1.960001 -4.48,3.78 -0.42,1.119998 -0.56,2.380001 -0.56,3.78 l 0,61.88 c 0,2.939997 0.7,4.900001 2.1,6.440003 0.7,0.7 1.68,1.12 2.94,1.12 2.66,0 3.92,-1.68001 4.48,-3.780003 0.42,-0.979999 0.56,-2.240002 0.56,-3.78 l 0,-18.62 -6.02,0 0,-12.74 21.14,0 0,51.240003 -8.96,0 -1.82,-4.9 c -2.8,3.49999 -6.86001,6.02 -11.76,6.02 -4.9,0 -8.26,-1.26001 -10.78,-3.5 -2.52,-2.1 -4.2,-4.76001 -5.32,-7.56 -1.26,-3.22 -1.82,-7.000008 -1.68,-11.200003 l 0,-60.62 c 0.14,-4.059996 0.98,-7.840004 2.52,-11.06 1.26,-2.799998 3.08,-5.600002 5.88,-7.7 2.8,-2.099998 6.72,-3.5 11.76,-3.5 5.03999,0 8.82,1.400002 11.62,3.5 2.8,2.099998 4.76,4.900002 6.02,7.7 1.54,3.219996 2.38,7.000004 2.52,11.06 l 0,15.82 -15.12,0" id="path3017"></path><path d="m 640.99054,114.05685 15.54,-102.900003 18.48,0 15.54,102.900003 -14.7,0 -2.8,-21.000003 -14.56,0 -2.8,21.000003 -14.7,0 m 25.62,-69.440003 -0.42,-2.66 -0.84,0 -0.42,2.66 -4.34,32.48 10.36,0 -4.34,-32.48" id="path3019"></path><path d="m 697.4171,114.05685 0,-102.900003 11.9,0 c 13.99999,0 21.56,2.800007 25.62,10.64 3.92,7.839992 4.48,20.72002 4.48,40.88 0,20.159979 -0.56,32.900007 -4.48,40.740003 -4.06,7.83999 -11.62001,10.64 -25.62,10.64 l -11.9,0 m 15.12,-15.120003 c 5.18,0 8.12,-0.560005 9.66,-5.6 0.7,-2.379998 1.26,-6.020005 1.4,-10.92 0.14,-4.899995 0.14,-11.480009 0.14,-19.88 0,-8.399992 0,-14.980005 -0.14,-19.88 -0.14,-4.759996 -0.7,-8.400003 -1.4,-10.92 -1.54,-4.899995 -4.48,-5.46 -9.66,-5.46 l 0,72.66" id="path3021"></path><path d="m 773.59023,48.116847 0,-15.82 c 0,-2.799998 -0.56001,-4.760002 -1.96,-6.44 -0.7,-0.7 -1.82001,-1.12 -3.08,-1.12 -2.66,0 -3.92001,1.960001 -4.48,3.78 -0.42,1.119998 -0.56,2.380001 -0.56,3.78 l 0,61.88 c 0,2.939997 0.7,4.900001 2.1,6.440003 0.69999,0.7 1.68,1.12 2.94,1.12 2.65999,0 3.92,-1.68001 4.48,-3.780003 0.42,-0.979999 0.56,-2.240002 0.56,-3.78 l 0,-18.62 -6.02,0 0,-12.74 21.14,0 0,51.240003 -8.96,0 -1.82,-4.9 c -2.8,3.49999 -6.86001,6.02 -11.76,6.02 -4.9,0 -8.26001,-1.26001 -10.78,-3.5 -2.52,-2.1 -4.20001,-4.76001 -5.32,-7.56 -1.26,-3.22 -1.82,-7.000008 -1.68,-11.200003 l 0,-60.62 c 0.14,-4.059996 0.98,-7.840004 2.52,-11.06 1.25999,-2.799998 3.08,-5.600002 5.88,-7.7 2.79999,-2.099998 6.72,-3.5 11.76,-3.5 5.03999,0 8.82,1.400002 11.62,3.5 2.79999,2.099998 4.76,4.900002 6.02,7.7 1.53999,3.219996 2.38,7.000004 2.52,11.06 l 0,15.82 -15.12,0" id="path3023"></path><path d="m 799.68273,11.156847 34.58,0 0,15.54 -19.46,0 0,27.02 14,0 0,16.52 -14,0 0,28.28 19.46,0 0,15.540003 -34.58,0 0,-102.900003" id="path3025"></path><path d="m 837.29241,26.696847 0,-15.54 43.68,0 0,15.54 -14.28,0 0,87.360003 -15.12,0 0,-87.360003 -14.28,0" id="path3027"></path><path d="m 911.96929,38.736847 c 0,-3.359997 -0.14,-7.140003 -1.12,-10.08 -0.98,-2.799998 -2.52,-4.76 -4.9,-4.76 -3.92,0.139999 -5.18,4.200006 -5.18,10.22 0,3.499996 1.54,7.140004 3.78,11.06 2.24,3.919996 5.18,7.980004 8.12,12.32 3.49999,5.179994 7,10.500005 9.66,15.68 2.66,5.179994 4.48,10.500005 4.48,16.1 0,6.859993 -1.12001,13.300003 -4.34,18.060003 -3.22,4.75999 -8.40001,7.84 -16.66,7.84 -9.65999,0 -15.12001,-3.64001 -18.2,-9.24 -3.08,-5.6 -3.78,-13.020011 -3.78,-20.720003 l 14.84,-1.4 c 0,4.339995 0.14,8.680003 1.26,11.9 0.98,3.359996 2.66,5.600003 5.88,5.600003 4.47999,0 6.16,-4.76001 6.16,-11.340003 0,-3.359997 -1.68,-7.280004 -3.92,-11.34 -1.26,-1.959998 -2.52,-4.060002 -3.92,-6.16 -2.94,-4.199996 -6.16001,-8.960006 -9.52,-14.14 -3.36,-5.179995 -5.88,-10.500006 -7.42,-15.96 -0.84,-2.659998 -1.26,-5.460003 -1.26,-8.26 0,-5.599995 1.26,-11.620005 4.48,-16.24 3.21999,-4.479996 8.12001,-7.700001 15.26,-7.84 9.09999,-0.1400002 14.42,3.640005 17.36,9.1 2.94,5.599994 3.78,12.460005 3.78,18.2 l -14.84,1.4" id="path3029"></path></g></g></svg> 